Coordinates
version=1
nRows=26
nColumns=24
inDegrees=yes

Units are S.I. units (second, meters, Newtons, ...)
Angles are in degrees.

endheader
time	pelvis_tilt	pelvis_list	pelvis_rotation	pelvis_tx	pelvis_ty	pelvis_tz	hip_flexion_r	hip_adduction_r	hip_rotation_r	knee_angle_r	ankle_angle_r	subtalar_angle_r	mtp_angle_r	hip_flexion_l	hip_adduction_l	hip_rotation_l	knee_angle_l	ankle_angle_l	subtalar_angle_l	mtp_angle_l	lumbar_extension	lumbar_bending	lumbar_rotation
      1.46633333	      3.47632485	      3.89785086	     -1.79783510	      0.32116736	      1.03933948	      0.30198143	     14.39935000	     -7.65038011	     -8.13373531	    -69.66639357	     -5.67597905	     -6.41843214	      2.89106917	      3.53579968	      8.59810209	      7.16676335	     -9.98641087	      2.03603355	    -15.94188811	     -5.09397955	     -8.33054840	     -5.25824490	      3.81927340
      1.47050000	      3.45077233	      3.72731618	     -1.73636133	      0.32581555	      1.04009864	      0.30155422	     15.00535266	     -7.45667786	     -8.19109578	    -69.41178997	     -5.21541595	     -6.31946754	      2.87680606	      3.12028577	      8.42923355	      7.26187266	     -9.69632688	      2.10267982	    -15.92455460	     -5.11442158	     -8.39983912	     -5.01920763	      3.73073264
      1.47466667	      3.45913884	      3.55931284	     -1.66798820	      0.33046383	      1.04089154	      0.30111080	     15.55519364	     -7.27267661	     -8.26181380	    -69.09934185	     -4.76327365	     -6.15744611	      2.85765504	      2.65509933	      8.26432579	      7.38596461	     -9.37894886	      2.17374664	    -15.91394570	     -5.14400683	     -8.49329009	     -4.78963416	      3.59089701
      1.47883333	      3.47825260	      3.40010396	     -1.58996521	      0.33511117	      1.04166004	      0.30065270	     16.07583903	     -7.10104616	     -8.34453142	    -68.73365057	     -4.33076090	     -6.03672108	      2.83405436	      2.17904630	      8.10772891	      7.51072483	     -9.06086060	      2.23843305	    -15.90971966	     -5.18348173	     -8.59816836	     -4.57387749	      3.43051871
      1.48300000	      3.46459551	      3.22323504	     -1.49448173	      0.33972840	      1.04235744	      0.30018667	     16.61418474	     -6.90471315	     -8.44231041	    -68.30763760	     -3.93409133	     -5.98884454	      2.82575751	      1.75564506	      7.92867704	      7.62214731	     -8.77559163	      2.30565998	    -15.88140508	     -5.20769420	     -8.67639052	     -4.33294385	      3.33059061
      1.48716667	      3.48891636	      3.07137464	     -1.39562469	      0.34435464	      1.04305950	      0.29970126	     17.09635289	     -6.74672263	     -8.54792364	    -67.83826399	     -3.53189032	     -5.88259428	      2.80708915	      1.27599472	      7.77783935	      7.76397760	     -8.45560736	      2.37660606	    -15.87303871	     -5.25267619	     -8.78650589	     -4.11687932	      3.13213653
      1.49133333	      3.48026472	      2.90204317	     -1.29178486	      0.34898189	      1.04369469	      0.29922901	     17.59450231	     -6.56070464	     -8.66142353	    -67.30458796	     -3.16165688	     -5.90331385	      2.80586239	      0.84809055	      7.60230736	      7.85675819	     -8.16630569	      2.44671298	    -15.82447479	     -5.26884474	     -8.83534886	     -3.88013912	      3.05720429
      1.49550000	      3.50026918	      2.73698947	     -1.16106158	      0.35354959	      1.04434076	      0.29871556	     18.04177646	     -6.38787415	     -8.79230245	    -66.71591027	     -2.80596836	     -5.83593907	      2.79771774	      0.39621578	      7.43311261	      8.01203432	     -7.88681743	      2.52528988	    -15.79768918	     -5.30096039	     -8.98723016	     -3.65565653	      2.87422345
      1.49966667	      3.54421726	      2.57921852	     -1.03629256	      0.35816020	      1.04497523	      0.29820820	     18.44281232	     -6.22446516	     -8.92648174	    -66.07289270	     -2.46976179	     -5.82749629	      2.78225932	     -0.09736804	      7.26897040	      8.16188319	     -7.57391947	      2.60107829	    -15.77553494	     -5.34733740	     -9.11660911	     -3.42468611	      2.64929978
      1.50383333	      3.52625707	      2.43283820	     -0.90222731	      0.36275033	      1.04547861	      0.29771203	     18.89962538	     -6.06819446	     -9.05885329	    -65.38694304	     -2.12551791	     -5.86840686	      2.77722233	     -0.49652384	      7.11262076	      8.27774447	     -7.31172196	      2.66904049	    -15.73119585	     -5.37289400	     -9.18057179	     -3.22495628	      2.53740246
      1.50800000	      3.54878385	      2.27366560	     -0.75734668	      0.36734381	      1.04602341	      0.29719945	     19.28382488	     -5.90124477	     -9.20808238	    -64.63134854	     -1.81118424	     -5.91037303	      2.76951525	     -0.94475917	      6.94109535	      8.41425349	     -7.03832980	      2.75368020	    -15.68456170	     -5.40091313	     -9.29024020	     -2.99557177	      2.37769914
      1.51216667	      3.56898244	      2.14302153	     -0.61975076	      0.37194876	      1.04649638	      0.29670521	     19.66081435	     -5.76418693	     -9.34396668	    -63.83755558	     -1.53392763	     -5.98185922	      2.74755223	     -1.39876917	      6.79804685	      8.57087245	     -6.74483101	      2.83544110	    -15.65569180	     -5.45567225	     -9.39717571	     -2.80106860	      2.10675121
      1.51633333	      3.58334967	      1.99549246	     -0.46450377	      0.37653717	      1.04695363	      0.29619519	     20.01553065	     -5.60837502	     -9.49734868	    -62.97674775	     -1.23617563	     -6.06558988	      2.73648338	     -1.82262073	      6.63397065	      8.69776970	     -6.49657059	      2.91818752	    -15.60422816	     -5.48583545	     -9.49770209	     -2.59157278	      1.98570431
      1.52050000	      3.60573600	      1.85997892	     -0.31736432	      0.38115400	      1.04737004	      0.29570835	     20.34388618	     -5.46099292	     -9.63964401	    -62.06319186	     -0.99676149	     -6.19168676	      2.71307390	     -2.26984227	      6.47945260	      8.84606367	     -6.21907337	      3.01391517	    -15.55278838	     -5.53144283	     -9.59556185	     -2.38822480	      1.76353884
      1.52466667	      3.58913647	      1.73587928	     -0.15843575	      0.38576258	      1.04769275	      0.29522144	     20.69646478	     -5.32490203	     -9.78406979	    -61.10598834	     -0.71682696	     -6.31415408	      2.69953652	     -2.64877070	      6.33575878	      8.97186124	     -5.99240156	      3.09852553	    -15.49757559	     -5.55772090	     -9.65516819	     -2.20733841	      1.63801125
      1.52883333	      3.57397364	      1.63186418	     -0.01780665	      0.39042101	      1.04796046	      0.29475965	     21.03318678	     -5.20553220	     -9.90758694	    -60.10871666	     -0.44866933	     -6.45839178	      2.68861716	     -3.04931431	      6.21101548	      9.09970440	     -5.72505453	      3.19229910	    -15.42340366	     -5.57469124	     -9.68071034	     -2.03340097	      1.51847104
      1.53300000	      3.61467467	      1.49917375	      0.14866142	      0.39503337	      1.04830462	      0.29429688	     21.26869974	     -5.05136673	    -10.05424493	    -59.00952436	     -0.32349333	     -6.66802778	      2.64866405	     -3.49155329	      6.05115753	      9.25055038	     -5.49522511	      3.30431535	    -15.38508477	     -5.62059964	     -9.82253080	     -1.85872347	      1.22603900
      1.53716667	      3.59572314	      1.38460084	      0.31177242	      0.39969094	      1.04851910	      0.29384048	     21.55391257	     -4.91603512	    -10.19142133	    -57.87921095	     -0.13505571	     -6.85849610	      2.60975340	     -3.86786771	      5.90986865	      9.39325403	     -5.26895112	      3.40640861	    -15.33215901	     -5.66250533	     -9.86550541	     -1.69009566	      1.03719667
      1.54133333	      3.59269524	      1.28437773	      0.47001136	      0.40434914	      1.04870295	      0.29341321	     21.80285224	     -4.78964792	    -10.31737040	    -56.69925536	      0.03355871	     -7.06927210	      2.56515701	     -4.25894875	      5.78120237	      9.52774898	     -5.04655902	      3.51244876	    -15.27547620	     -5.70349774	     -9.92625384	     -1.53854537	      0.85790998
      1.54550000	      3.56432025	      1.18352814	      0.63715133	      0.40901535	      1.04882809	      0.29298848	     22.05336988	     -4.66038274	    -10.44338202	    -55.46251793	      0.21058663	     -7.26912663	      2.52849083	     -4.60965217	      5.65016749	      9.66337052	     -4.85137267	      3.61632411	    -15.21838009	     -5.73199847	     -9.96783039	     -1.38216802	      0.71751184
      1.54966667	      3.55071678	      1.09272061	      0.79803323	      0.41370329	      1.04891938	      0.29259281	     22.26604378	     -4.53455955	    -10.55876465	    -54.17305704	      0.34267488	     -7.50994765	      2.48505794	     -4.98262413	      5.52726542	      9.80173530	     -4.64490264	      3.73127153	    -15.16033741	     -5.75988189	    -10.01243041	     -1.24366416	      0.54924969
      1.55383333	      3.52187247	      1.00103806	      0.95957632	      0.41841940	      1.04895884	      0.29221231	     22.46806485	     -4.40246344	    -10.66759989	    -52.82236118	      0.43670197	     -7.76217591	      2.43323863	     -5.33722438	      5.40120066	      9.93970486	     -4.44420915	      3.84911389	    -15.10846632	     -5.78878317	    -10.03406007	     -1.10815274	      0.36784517
      1.55800000	      3.48923417	      0.93241835	      1.11670937	      0.42315222	      1.04893901	      0.29186289	     22.65805928	     -4.29378891	    -10.77266754	    -51.43730741	      0.54317509	     -8.00688513	      2.38267688	     -5.69304749	      5.29684347	     10.07603853	     -4.23149892	      3.96702298	    -15.05294645	     -5.81377151	    -10.05935512	     -1.00271817	      0.20695818
      1.56216667	      3.47523081	      0.86835917	      1.27191781	      0.42789856	      1.04891206	      0.29153697	     22.79864987	     -4.18054329	    -10.86757153	    -49.98020032	      0.53957673	     -8.31595873	      2.29628656	     -6.06361336	      5.19604699	     10.20213094	     -4.03447611	      4.09424066	    -15.01861675	     -5.85432562	    -10.08434897	     -0.91252921	     -0.02662636
      1.56633333	      3.42846563	      0.80912455	      1.42793822	      0.43265922	      1.04879568	      0.29123532	     22.95082076	     -4.06447580	    -10.94428269	    -48.47619352	      0.56449202	     -8.60041070	      2.18946347	     -6.39469554	      5.09909255	     10.34694476	     -3.84789128	      4.21349356	    -14.97576822	     -5.90259539	    -10.08077426	     -0.82591323	     -0.23132023
      1.57050000	      3.37893329	      0.74610498	      1.59120766	      0.43745704	      1.04864725	      0.29094198	     23.07487014	     -3.94770826	    -11.04002520	    -46.91326394	      0.57732878	     -8.86550238	      2.08175271	     -6.72009610	      4.99467648	     10.48001910	     -3.66949323	      4.34383891	    -14.93973619	     -5.94699998	    -10.07466305	     -0.73754063	     -0.40362537
